<svg width="510" height="510" viewBox="0 0 510 510" fill="none" xmlns="http://www.w3.org/2000/svg">
<path fill-rule="evenodd" clip-rule="evenodd" d="M460.5 26.5C465.397 23.5383 470.256 19.1311 475.022 14.8086C485.911 4.93309 496.313 -4.50089 505.562 4.75202C514.485 13.6748 506.496 25.2662 497.776 37.9187C494.289 42.9771 490.686 48.2051 488 53.5C482.682 63.9831 474.163 74.0655 464.116 85.9559C456.834 94.5738 448.75 104.142 440.5 115.5C428.465 132.071 416.5 150.584 403.913 170.058C375.683 213.736 344.329 262.249 302.054 304.52L302.111 304.616C290.291 316.219 268.331 321.296 246.809 326.272C213.848 333.891 181.914 341.274 189 371.5C191.055 380.266 197.468 389.399 201.987 395.834C204.696 399.692 206.724 402.58 206.724 403.838C206.724 431.934 198.784 452.991 182.45 468.213L182.364 468.293C150.681 497.359 91.924 509.46 43.741 509.46C37.182 509.46 30.82 509.236 24.748 508.8L0 507.023L13.076 485.935C13.076 485.935 26.725 443.282 26.725 403.839V403.688C32.6974 355.691 45.1167 338.286 80.563 321.163L80.923 321.006C87.8337 318.108 98.1098 322.438 110.027 327.46C125.21 333.859 143.058 341.38 160 336.5C188.564 328.273 193.546 299.814 198.473 271.674C202.006 251.491 205.511 231.472 217.667 219.202L217.716 219.233C249.102 187.845 289.435 158.989 328.883 130.767C354.53 112.417 379.804 94.3354 402 76C412.655 67.1987 421.535 59.0764 429.426 51.8597C441.107 41.1768 450.617 32.4784 460.5 26.5ZM33 487.195C30 485.935 35.5 420.5 45.5 414C50.8531 410.521 52.7675 408.76 54.4646 408.95C55.9377 409.114 57.2471 410.747 60.5 414C67.5 421 56 480.5 45.5 485.935C45.2042 486.088 45.5704 485.972 45.9323 485.857C46.6363 485.633 47.3241 485.415 43.0915 487.195C37.7011 489.461 36.3615 488.806 34.2865 487.791C33.8946 487.599 33.4766 487.395 33 487.195ZM183.5 363.5L156.5 341.5C171.678 336.71 181.378 332.359 185.5 322L204 336.5C191.766 341.32 187.14 349.846 183.5 363.5Z" fill="white"/>
</svg>
